name rise30.8019peak61.5557fall86.2505.mot
datacolumns 19
datarows 14
range 11.13829700000000 11.15996500000000
endheader
time	ground_force1_vx	ground_force1_vy	ground_force1_vz	ground_force1_px	ground_force1_py	ground_force1_pz	ground_force2_vx	ground_force2_vy	ground_force2_vz	ground_force2_px	ground_force2_py	ground_force2_pz	ground_torque1_x	ground_torque1_y	ground_torque1_z	ground_torque2_x	ground_torque2_y	ground_torque2_z	
11.13829700000000	-5.44370900000000	43.50413700000000	-9.90766800000000	0.25026800000000	0.00000000000000	0.07304000000000	-70.80703900000000	731.35474699999997	-38.86978400000000	0.00770200000000	0.00000000000000	-0.07509300000000	0.00000000000000	-5.60235800000000	0.00000000000000	0.00000000000000	-10.28988500000000	0.00000000000000	
11.13996400000000	-5.80509300000000	50.99092900000000	-11.13439300000000	0.25689900000000	0.00000000000000	0.07408000000000	-71.74902899999999	728.35700799999995	-38.49681900000000	0.00673700000000	0.00000000000000	-0.07495300000000	0.00000000000000	-6.40011000000000	0.00000000000000	0.00000000000000	-10.37361400000000	0.00000000000000	
11.14163000000000	-6.01879000000000	58.57313600000000	-12.24787900000000	0.26285800000000	0.00000000000000	0.07502100000000	-72.69383000000001	725.23317499999996	-38.11146000000000	0.00577500000000	0.00000000000000	-0.07481100000000	0.00000000000000	-7.15108800000000	0.00000000000000	0.00000000000000	-10.46023300000000	0.00000000000000	
11.14329000000000	-6.06958700000000	66.15349800000000	-13.22241600000000	0.26824500000000	0.00000000000000	0.07587800000000	-73.63972099999999	721.97954200000004	-37.71337200000000	0.00481800000000	0.00000000000000	-0.07466700000000	0.00000000000000	-7.83816900000000	0.00000000000000	0.00000000000000	-10.54951900000000	0.00000000000000	
11.14496100000000	-5.94960900000000	73.65858500000000	-14.04122400000000	0.27313800000000	0.00000000000000	0.07666300000000	-74.58489600000000	718.59243900000001	-37.30223800000000	0.00386600000000	0.00000000000000	-0.07452100000000	0.00000000000000	-8.44920600000000	0.00000000000000	0.00000000000000	-10.64123400000000	0.00000000000000	
11.14662800000000	-5.65805400000000	81.04106600000000	-14.69653400000000	0.27760400000000	0.00000000000000	0.07738600000000	-75.52747200000000	715.06824700000004	-36.87775800000000	0.00291900000000	0.00000000000000	-0.07437500000000	0.00000000000000	-8.97727800000000	0.00000000000000	0.00000000000000	-10.73512600000000	0.00000000000000	
11.14829600000000	-5.20040200000000	88.27943800000000	-15.18893100000000	0.28169500000000	0.00000000000000	0.07805500000000	-76.46548400000000	711.40341200000000	-36.43965200000000	0.00197800000000	0.00000000000000	-0.07422600000000	0.00000000000000	-9.42046800000000	0.00000000000000	0.00000000000000	-10.83092900000000	0.00000000000000	
11.14995900000000	-4.58723900000000	95.37568500000000	-15.52611300000000	0.28545600000000	0.00000000000000	0.07867700000000	-77.39689600000000	707.59445600000004	-35.98766400000000	0.00104300000000	0.00000000000000	-0.07407600000000	0.00000000000000	-9.78126400000000	0.00000000000000	0.00000000000000	-10.92836400000000	0.00000000000000	
11.15162600000000	-3.83287000000000	102.35138499999999	-15.72128600000000	0.28892400000000	0.00000000000000	0.07925800000000	-78.31959700000000	703.63799700000004	-35.52156400000000	0.00011500000000	0.00000000000000	-0.07392500000000	0.00000000000000	-10.06569300000000	0.00000000000000	0.00000000000000	-11.02713600000000	0.00000000000000	
11.15330900000000	-2.95386400000000	109.24289800000000	-15.79138000000000	0.29213100000000	0.00000000000000	0.07980200000000	-79.23141400000000	699.53076199999998	-35.04115200000000	-0.00080600000000	0.00000000000000	-0.07377200000000	0.00000000000000	-10.28232200000000	0.00000000000000	0.00000000000000	-11.12694000000000	0.00000000000000	
11.15495700000000	-1.96766400000000	116.09615700000001	-15.75527500000000	0.29510300000000	0.00000000000000	0.08031400000000	-80.13010700000000	695.26960199999996	-34.54625800000000	-0.00171900000000	0.00000000000000	-0.07361700000000	0.00000000000000	-10.44120700000000	0.00000000000000	0.00000000000000	-11.22745700000000	0.00000000000000	
11.15663100000000	-0.89137200000000	122.96158000000000	-15.63216600000000	0.29786300000000	0.00000000000000	0.08079600000000	-81.01338100000000	690.85150799999997	-34.03674700000000	-0.00262500000000	0.00000000000000	-0.07346100000000	0.00000000000000	-10.55291500000000	0.00000000000000	0.00000000000000	-11.32835600000000	0.00000000000000	
11.15829200000000	0.25924100000000	129.88947600000000	-15.44018700000000	0.30043000000000	0.00000000000000	0.08125200000000	-81.87888900000000	686.27362900000003	-33.51252100000000	-0.00352200000000	0.00000000000000	-0.07330400000000	0.00000000000000	-10.62766400000000	0.00000000000000	0.00000000000000	-11.42929500000000	0.00000000000000	
11.15996500000000	1.47044700000000	136.92622000000000	-15.19535100000000	0.30282100000000	0.00000000000000	0.08168400000000	-82.72423600000000	681.53328999999997	-32.97351800000000	-0.00441100000000	0.00000000000000	-0.07314500000000	0.00000000000000	-10.67464100000000	0.00000000000000	0.00000000000000	-11.52992200000000	0.00000000000000	
